<svg x="0px" y="0px" viewBox="0 0 226 226">
  <g fill="none" fill-rule="nonzero" stroke="none" stroke-width="1" stroke-linecap="butt" stroke-linejoin="miter" stroke-miterlimit="10" stroke-dasharray="" stroke-dashoffset="0" font-family="none" font-weight="none" font-size="none" text-anchor="none" style="mix-blend-mode: normal">
    <path d="M0,226v-226h226v226z" fill="none"></path>
    <g fill="#a562e6">
      <path d="M193.5012,205.26676l-75.823,-104.60184l70.96852,-79.5746c1.18876,-1.32888 1.48256,-3.2318 0.75484,-4.85448c-0.73224,-1.63172 -2.34588,-2.67584 -4.12676,-2.67584h-35.6402c-1.27012,0 -2.486,0.53788 -3.34028,1.47804l-73.97432,81.2018v-78.15984c0,-2.49504 -2.02496,-4.52 -4.52,-4.52h-31.64c-2.49504,0 -4.52,2.02496 -4.52,4.52v189.84c0,2.49504 2.02496,4.52 4.52,4.52h31.64c2.49504,0 4.52,-2.02496 4.52,-4.52v-56.39604l20.76036,-23.278l59.61428,82.32276c0.84976,1.1752 2.21028,1.87128 3.6612,1.87128h33.48416c1.69952,0 3.2544,-0.95372 4.02732,-2.4634c0.77292,-1.5142 0.62828,-3.33576 -0.36612,-4.70984z">
      </path>
    </g>
  </g>
</svg>